<svg width="45" height="46" viewBox="0 0 45 46" fill="none" xmlns="http://www.w3.org/2000/svg">
<path d="M1.5 1.5H30C37.4558 1.5 43.5 7.54416 43.5 15V44.5H15C7.54416 44.5 1.5 38.4558 1.5 31V1.5Z" stroke="#E02025" stroke-width="3"/>
<g clip-path="url(#clip0_14_1313)">
<path d="M27.3615 32.3782L27.0345 33.7444C26.0537 34.1402 25.2702 34.4414 24.6867 34.6485C24.1027 34.8562 23.424 34.9596 22.6508 34.9596C21.4633 34.9596 20.5397 34.6622 19.881 34.0716C19.2222 33.4786 18.8928 32.7272 18.8928 31.8157C18.8928 31.4628 18.9167 31.0998 18.9664 30.73C19.0165 30.3598 19.0962 29.9428 19.2053 29.4768L20.4311 25.0416C20.5401 24.6169 20.6328 24.2146 20.7071 23.834C20.7824 23.4559 20.8186 23.1079 20.8186 22.7947C20.8186 22.2283 20.7039 21.8321 20.4755 21.6094C20.2471 21.3873 19.8113 21.2745 19.1644 21.2745C18.8475 21.2745 18.5218 21.3264 18.1898 21.4267C17.8563 21.5275 17.5713 21.6248 17.332 21.7153L17.6598 20.348C18.4628 20.0138 19.2304 19.7276 19.9647 19.49C20.6989 19.2518 21.3926 19.1327 22.0489 19.1327C23.2281 19.1327 24.1381 19.424 24.7771 20.0067C25.4161 20.5898 25.7355 21.3457 25.7355 22.2772C25.7355 22.4699 25.7146 22.8095 25.6695 23.2949C25.6254 23.7813 25.5434 24.227 25.4239 24.6324L24.2033 29.0497C24.1033 29.4045 24.0133 29.8101 23.9351 30.2665C23.8543 30.7199 23.8158 31.0664 23.8158 31.2988C23.8158 31.8853 23.9437 32.2858 24.2002 32.4987C24.4585 32.7116 24.9036 32.8175 25.5357 32.8175C25.8324 32.8175 26.1701 32.7636 26.5453 32.658C26.9194 32.5523 27.1923 32.4594 27.3615 32.3782ZM27.671 13.8329C27.671 14.6026 27.3873 15.2599 26.8171 15.8003C26.2483 16.3427 25.5629 16.6141 24.7612 16.6141C23.9569 16.6141 23.2699 16.3427 22.6946 15.8003C22.1204 15.2596 21.8326 14.6026 21.8326 13.8329C21.8326 13.0648 22.1204 12.4064 22.6946 11.8591C23.2688 11.3127 23.9571 11.0396 24.7612 11.0396C25.5627 11.0396 26.2483 11.3133 26.8171 11.8591C27.3877 12.4064 27.671 13.065 27.671 13.8329Z" fill="#E02025"/>
</g>
<defs>
<clipPath id="clip0_14_1313">
<rect width="23.4" height="23.92" fill="white" transform="translate(10.8008 11.0396)"/>
</clipPath>
</defs>
</svg>
